<mxfile host="app.diagrams.net" modified="2020-10-08T10:06:24.058Z" agent="5.0 (Windows NT 10.0; Win64; x64) AppleWebKit/537.36 (KHTML, like Gecko) Chrome/80.0.3987.162 Safari/537.36" etag="jw3rhPZqJq8tHLWEUF17" version="13.7.8" type="github">
  <diagram name="Page-1" id="74e2e168-ea6b-b213-b513-2b3c1d86103e">
    <mxGraphModel dx="1470" dy="535" grid="1" gridSize="10" guides="1" tooltips="1" connect="1" arrows="1" fold="1" page="1" pageScale="1" pageWidth="1100" pageHeight="850" background="#ffffff" math="0" shadow="0">
      <root>
        <mxCell id="0" />
        <mxCell id="1" parent="0" />
        <mxCell id="70lNwWaXjQEXrbum7vbb-63" value="" style="rounded=1;whiteSpace=wrap;html=1;strokeColor=#FF0000;" parent="1" vertex="1">
          <mxGeometry x="60" y="760" width="1180" height="100" as="geometry" />
        </mxCell>
        <mxCell id="70lNwWaXjQEXrbum7vbb-83" value="" style="endArrow=classic;html=1;strokeWidth=3;" parent="1" edge="1">
          <mxGeometry width="50" height="50" relative="1" as="geometry">
            <mxPoint x="781" y="704" as="sourcePoint" />
            <mxPoint x="781.05" y="739" as="targetPoint" />
            <Array as="points">
              <mxPoint x="781" y="704" />
            </Array>
          </mxGeometry>
        </mxCell>
        <mxCell id="70lNwWaXjQEXrbum7vbb-87" value="" style="endArrow=classic;html=1;strokeWidth=3;entryX=0.5;entryY=1;entryDx=0;entryDy=0;" parent="1" target="77e6c97f196da883-3" edge="1">
          <mxGeometry width="50" height="50" relative="1" as="geometry">
            <mxPoint x="482" y="680" as="sourcePoint" />
            <mxPoint x="482.04999999999995" y="715" as="targetPoint" />
            <Array as="points">
              <mxPoint x="482" y="680" />
            </Array>
          </mxGeometry>
        </mxCell>
        <mxCell id="70lNwWaXjQEXrbum7vbb-90" value="" style="endArrow=classic;html=1;strokeWidth=3;" parent="1" edge="1">
          <mxGeometry width="50" height="50" relative="1" as="geometry">
            <mxPoint x="312" y="490" as="sourcePoint" />
            <mxPoint x="457" y="150" as="targetPoint" />
            <Array as="points">
              <mxPoint x="347" y="490" />
              <mxPoint x="347" y="120" />
              <mxPoint x="457" y="120" />
            </Array>
          </mxGeometry>
        </mxCell>
        <mxCell id="77e6c97f196da883-1" value="&lt;font style=&quot;font-weight: normal ; font-size: 14px&quot;&gt;&lt;u&gt;Application Migration Work Flow&lt;/u&gt;&lt;/font&gt;" style="swimlane;html=1;childLayout=stackLayout;startSize=20;rounded=0;shadow=0;labelBackgroundColor=none;strokeWidth=1;fontFamily=Verdana;fontSize=8;align=center;strokeColor=#001DBC;fillColor=#0050ef;fontColor=#ffffff;" parent="1" vertex="1">
          <mxGeometry x="40" width="1180" height="670" as="geometry" />
        </mxCell>
        <mxCell id="77e6c97f196da883-2" value="&amp;nbsp; &amp;nbsp; &amp;nbsp; &amp;nbsp; &amp;nbsp; Discovery Phase" style="swimlane;html=1;startSize=20;align=left;fillColor=#d80073;strokeColor=#A50040;fontColor=#ffffff;" parent="77e6c97f196da883-1" vertex="1">
          <mxGeometry y="20" width="280" height="650" as="geometry">
            <mxRectangle y="20" width="30" height="730" as="alternateBounds" />
          </mxGeometry>
        </mxCell>
        <mxCell id="70lNwWaXjQEXrbum7vbb-1" value="&lt;b&gt;&lt;font style=&quot;font-size: 12px&quot;&gt;Application Wiring &lt;br&gt;&lt;/font&gt;&lt;/b&gt;&lt;br&gt;Connectivity with Rest of environment components both &amp;amp;&amp;nbsp;Internal &amp;amp; External" style="rounded=1;whiteSpace=wrap;html=1;shadow=0;labelBackgroundColor=none;strokeWidth=1;fontFamily=Verdana;fontSize=8;align=center;" parent="77e6c97f196da883-2" vertex="1">
          <mxGeometry x="30" y="330" width="200" height="120" as="geometry" />
        </mxCell>
        <mxCell id="77e6c97f196da883-9" value="&lt;font style=&quot;font-size: 12px&quot;&gt;&lt;b&gt;Building Environment Inventory&lt;/b&gt;.&lt;br&gt;&lt;/font&gt;&lt;br&gt;&lt;font style=&quot;font-size: 10px&quot;&gt;Apps&amp;nbsp; /Stacks, OS, No. VM, Environment, Users, Business Critical Apps, etc)&lt;/font&gt;" style="rounded=1;whiteSpace=wrap;html=1;shadow=0;labelBackgroundColor=none;strokeWidth=1;fontFamily=Verdana;fontSize=8;align=center;" parent="77e6c97f196da883-2" vertex="1">
          <mxGeometry x="27.5" y="190" width="202.5" height="120" as="geometry" />
        </mxCell>
        <mxCell id="77e6c97f196da883-8" value="&lt;font&gt;&lt;b style=&quot;font-size: 12px&quot;&gt;Identify Application&lt;br&gt;&lt;br&gt;&lt;/b&gt;&lt;font style=&quot;font-size: 10px&quot;&gt;SPOC for the Migration,&lt;br&gt;&lt;/font&gt;&lt;font style=&quot;font-size: 10px&quot;&gt;App Owners /Stake Holder&lt;/font&gt;&lt;/font&gt;" style="rounded=1;whiteSpace=wrap;html=1;shadow=0;labelBackgroundColor=none;strokeWidth=1;fontFamily=Verdana;fontSize=8;align=center;" parent="77e6c97f196da883-2" vertex="1">
          <mxGeometry x="27.5" y="50" width="200" height="120" as="geometry" />
        </mxCell>
        <mxCell id="70lNwWaXjQEXrbum7vbb-2" value="&lt;b&gt;&lt;font style=&quot;font-size: 12px&quot;&gt;Understanding Current process &amp;amp; Procedures.&lt;br&gt;&lt;/font&gt;&lt;/b&gt;&lt;br&gt;(Build/ Patch / upgrades, decommission etc)" style="rounded=1;whiteSpace=wrap;html=1;shadow=0;labelBackgroundColor=none;strokeWidth=1;fontFamily=Verdana;fontSize=8;align=center;" parent="77e6c97f196da883-2" vertex="1">
          <mxGeometry x="30" y="470" width="200" height="120" as="geometry" />
        </mxCell>
        <mxCell id="70lNwWaXjQEXrbum7vbb-11" value="" style="shape=curlyBracket;whiteSpace=wrap;html=1;rounded=1;size=0;rotation=-180;" parent="77e6c97f196da883-2" vertex="1">
          <mxGeometry x="230" y="260" width="30" height="285" as="geometry" />
        </mxCell>
        <mxCell id="77e6c97f196da883-3" value="Assessment" style="swimlane;html=1;startSize=20;align=center;strokeColor=#A50040;fillColor=#d80073;fontColor=#ffffff;" parent="77e6c97f196da883-1" vertex="1">
          <mxGeometry x="280" y="20" width="300" height="650" as="geometry">
            <mxRectangle x="160" width="100" height="20" as="alternateBounds" />
          </mxGeometry>
        </mxCell>
        <mxCell id="70lNwWaXjQEXrbum7vbb-54" value="" style="endArrow=classic;html=1;strokeWidth=3;" parent="77e6c97f196da883-3" edge="1">
          <mxGeometry width="50" height="50" relative="1" as="geometry">
            <mxPoint x="149.5" y="380" as="sourcePoint" />
            <mxPoint x="149.5" y="390" as="targetPoint" />
            <Array as="points">
              <mxPoint x="149.5" y="320" />
              <mxPoint x="149.5" y="380" />
            </Array>
          </mxGeometry>
        </mxCell>
        <mxCell id="70lNwWaXjQEXrbum7vbb-13" value="&lt;font style=&quot;font-size: 12px&quot;&gt;&lt;b&gt;Migration Feasibility Analysis.&lt;/b&gt;&lt;br&gt;&lt;/font&gt;&lt;br&gt;&lt;br&gt;&lt;font style=&quot;font-size: 10px&quot;&gt;Comparing apps / Service from current to corresponding services in AZ.&amp;nbsp;&lt;/font&gt;" style="rounded=1;whiteSpace=wrap;html=1;shadow=0;labelBackgroundColor=none;strokeWidth=1;fontFamily=Verdana;fontSize=8;align=center;" parent="77e6c97f196da883-3" vertex="1">
          <mxGeometry x="30" y="230" width="240" height="75" as="geometry" />
        </mxCell>
        <mxCell id="77e6c97f196da883-11" value="&lt;b&gt;&lt;font style=&quot;font-size: 12px&quot;&gt;Building App E2E As-is Layout / Arch Diagram&lt;/font&gt;&lt;/b&gt;" style="rounded=1;whiteSpace=wrap;html=1;shadow=0;labelBackgroundColor=none;strokeWidth=1;fontFamily=Verdana;fontSize=8;align=center;" parent="77e6c97f196da883-3" vertex="1">
          <mxGeometry x="30" y="70" width="240" height="80" as="geometry" />
        </mxCell>
        <mxCell id="70lNwWaXjQEXrbum7vbb-53" value="" style="endArrow=classic;html=1;strokeWidth=3;" parent="77e6c97f196da883-3" edge="1">
          <mxGeometry width="50" height="50" relative="1" as="geometry">
            <mxPoint x="149.5" y="160" as="sourcePoint" />
            <mxPoint x="149.5" y="220" as="targetPoint" />
          </mxGeometry>
        </mxCell>
        <mxCell id="70lNwWaXjQEXrbum7vbb-88" value="&lt;b&gt;Passed&amp;nbsp;&lt;/b&gt;" style="rhombus;whiteSpace=wrap;html=1;strokeColor=#001DBC;fillColor=#0050ef;fontColor=#ffffff;" parent="77e6c97f196da883-3" vertex="1">
          <mxGeometry x="81" y="477" width="130" height="100" as="geometry" />
        </mxCell>
        <mxCell id="70lNwWaXjQEXrbum7vbb-44" value="PLANNING" style="swimlane;html=1;startSize=20;align=center;fillColor=#d80073;fontColor=#ffffff;strokeColor=#33001A;" parent="77e6c97f196da883-1" vertex="1">
          <mxGeometry x="580" y="20" width="300" height="650" as="geometry">
            <mxRectangle x="160" width="100" height="20" as="alternateBounds" />
          </mxGeometry>
        </mxCell>
        <mxCell id="70lNwWaXjQEXrbum7vbb-84" value="" style="endArrow=classic;html=1;strokeWidth=3;" parent="70lNwWaXjQEXrbum7vbb-44" edge="1">
          <mxGeometry width="50" height="50" relative="1" as="geometry">
            <mxPoint x="-85" y="530" as="sourcePoint" />
            <mxPoint x="90" y="70" as="targetPoint" />
            <Array as="points">
              <mxPoint x="-15" y="530" />
              <mxPoint x="-15" y="40" />
              <mxPoint x="90" y="40" />
            </Array>
          </mxGeometry>
        </mxCell>
        <mxCell id="70lNwWaXjQEXrbum7vbb-86" value="&lt;font style=&quot;font-size: 18px&quot;&gt;YES&lt;/font&gt;" style="edgeLabel;html=1;align=center;verticalAlign=middle;resizable=0;points=[];" parent="70lNwWaXjQEXrbum7vbb-84" vertex="1" connectable="0">
          <mxGeometry x="-0.9177" y="-2" relative="1" as="geometry">
            <mxPoint as="offset" />
          </mxGeometry>
        </mxCell>
        <mxCell id="QOqbm0XGTWtQkNrjPd4z-3" value="" style="endArrow=classic;html=1;strokeWidth=3;" edge="1" parent="70lNwWaXjQEXrbum7vbb-44">
          <mxGeometry width="50" height="50" relative="1" as="geometry">
            <mxPoint x="140.00000000000023" y="220" as="sourcePoint" />
            <mxPoint x="140.00000000000023" y="229.9999999999999" as="targetPoint" />
            <Array as="points">
              <mxPoint x="140" y="160" />
              <mxPoint x="140" y="220" />
            </Array>
          </mxGeometry>
        </mxCell>
        <mxCell id="70lNwWaXjQEXrbum7vbb-74" value="" style="endArrow=classic;html=1;strokeWidth=3;" parent="70lNwWaXjQEXrbum7vbb-44" edge="1">
          <mxGeometry width="50" height="50" relative="1" as="geometry">
            <mxPoint x="149.5" y="490" as="sourcePoint" />
            <mxPoint x="149.54999999999995" y="525" as="targetPoint" />
            <Array as="points">
              <mxPoint x="149.5" y="490" />
            </Array>
          </mxGeometry>
        </mxCell>
        <mxCell id="70lNwWaXjQEXrbum7vbb-71" value="" style="endArrow=classic;html=1;strokeWidth=3;" parent="70lNwWaXjQEXrbum7vbb-44" edge="1">
          <mxGeometry width="50" height="50" relative="1" as="geometry">
            <mxPoint x="149.49999999999994" y="395" as="sourcePoint" />
            <mxPoint x="149.49999999999994" y="404.9999999999999" as="targetPoint" />
            <Array as="points">
              <mxPoint x="150" y="360" />
              <mxPoint x="149.49999999999994" y="395" />
            </Array>
          </mxGeometry>
        </mxCell>
        <mxCell id="70lNwWaXjQEXrbum7vbb-65" value="&lt;font style=&quot;font-size: 12px&quot;&gt;&lt;b&gt;Purpose &quot;To Be&quot; Arch diagram&lt;/b&gt;&lt;/font&gt;" style="rounded=1;whiteSpace=wrap;html=1;shadow=0;labelBackgroundColor=none;strokeWidth=1;fontFamily=Verdana;fontSize=8;align=center;" parent="70lNwWaXjQEXrbum7vbb-44" vertex="1">
          <mxGeometry x="30" y="70" width="240" height="80" as="geometry" />
        </mxCell>
        <mxCell id="70lNwWaXjQEXrbum7vbb-77" value="&lt;b&gt;Approved&lt;/b&gt;" style="rhombus;whiteSpace=wrap;html=1;strokeColor=#001DBC;fillColor=#0050ef;fontColor=#ffffff;" parent="70lNwWaXjQEXrbum7vbb-44" vertex="1">
          <mxGeometry x="85" y="540" width="130" height="90" as="geometry" />
        </mxCell>
        <mxCell id="70lNwWaXjQEXrbum7vbb-72" value="&lt;b style=&quot;font-size: 12px&quot;&gt;Submit plan for approval.&lt;br&gt;&lt;/b&gt;&lt;br&gt;&lt;span style=&quot;font-size: 12px&quot;&gt;Approval from App Owners, Stakeholders, CAB, Etc&lt;/span&gt;" style="rounded=1;whiteSpace=wrap;html=1;shadow=0;labelBackgroundColor=none;strokeWidth=1;fontFamily=Verdana;fontSize=8;align=center;" parent="70lNwWaXjQEXrbum7vbb-44" vertex="1">
          <mxGeometry x="30" y="410" width="240" height="75" as="geometry" />
        </mxCell>
        <mxCell id="70lNwWaXjQEXrbum7vbb-64" value="&lt;b style=&quot;font-size: 12px&quot;&gt;Preparing RunBook/ Plan for migration.&lt;/b&gt;&lt;br&gt;&lt;span style=&quot;font-size: 12px&quot;&gt;Plan based on all the consideration, Learning, Internal and exteranl factors, etc. &lt;br&gt;D&lt;/span&gt;&lt;span style=&quot;font-size: 12px&quot;&gt;etailing all the resource to be used in AZ, Phase-Dates ,&amp;nbsp;&lt;/span&gt;" style="rounded=1;whiteSpace=wrap;html=1;shadow=0;labelBackgroundColor=none;strokeWidth=1;fontFamily=Verdana;fontSize=8;align=center;" parent="70lNwWaXjQEXrbum7vbb-44" vertex="1">
          <mxGeometry x="30" y="250" width="240" height="100" as="geometry" />
        </mxCell>
        <mxCell id="70lNwWaXjQEXrbum7vbb-67" value="EXECUTION" style="swimlane;html=1;startSize=20;align=center;strokeColor=#A50040;fillColor=#d80073;fontColor=#ffffff;" parent="77e6c97f196da883-1" vertex="1">
          <mxGeometry x="880" y="20" width="300" height="650" as="geometry">
            <mxRectangle x="160" width="100" height="20" as="alternateBounds" />
          </mxGeometry>
        </mxCell>
        <mxCell id="70lNwWaXjQEXrbum7vbb-80" value="" style="endArrow=classic;html=1;strokeWidth=3;exitX=1;exitY=0.5;exitDx=0;exitDy=0;" parent="70lNwWaXjQEXrbum7vbb-67" source="70lNwWaXjQEXrbum7vbb-77" edge="1">
          <mxGeometry width="50" height="50" relative="1" as="geometry">
            <mxPoint x="-40" y="570" as="sourcePoint" />
            <mxPoint x="130" y="60" as="targetPoint" />
            <Array as="points">
              <mxPoint x="20" y="570" />
              <mxPoint x="20" y="30" />
              <mxPoint x="130" y="30" />
            </Array>
          </mxGeometry>
        </mxCell>
        <mxCell id="70lNwWaXjQEXrbum7vbb-81" value="YES" style="edgeLabel;html=1;align=center;verticalAlign=middle;resizable=0;points=[];" parent="70lNwWaXjQEXrbum7vbb-80" vertex="1" connectable="0">
          <mxGeometry x="-0.3584" relative="1" as="geometry">
            <mxPoint x="-50" y="18.64" as="offset" />
          </mxGeometry>
        </mxCell>
        <mxCell id="70lNwWaXjQEXrbum7vbb-82" value="&lt;font style=&quot;font-size: 18px&quot;&gt;YES&lt;/font&gt;" style="edgeLabel;html=1;align=center;verticalAlign=middle;resizable=0;points=[];" parent="70lNwWaXjQEXrbum7vbb-80" vertex="1" connectable="0">
          <mxGeometry x="-0.9177" y="-2" relative="1" as="geometry">
            <mxPoint as="offset" />
          </mxGeometry>
        </mxCell>
        <mxCell id="70lNwWaXjQEXrbum7vbb-69" value="&lt;font style=&quot;font-size: 12px&quot;&gt;&lt;b&gt;Execution&lt;/b&gt;&lt;/font&gt;" style="rhombus;whiteSpace=wrap;html=1;rounded=0;shadow=0;labelBackgroundColor=none;strokeWidth=1;fontFamily=Verdana;fontSize=8;align=center;" parent="70lNwWaXjQEXrbum7vbb-67" vertex="1">
          <mxGeometry x="75" y="250" width="170" height="130" as="geometry" />
        </mxCell>
        <mxCell id="70lNwWaXjQEXrbum7vbb-70" value="&lt;font style=&quot;font-size: 12px&quot;&gt;&lt;b&gt;Execution&amp;nbsp;as per the Approved Plan&lt;/b&gt;&lt;/font&gt;" style="rounded=1;whiteSpace=wrap;html=1;shadow=0;labelBackgroundColor=none;strokeWidth=1;fontFamily=Verdana;fontSize=8;align=center;" parent="70lNwWaXjQEXrbum7vbb-67" vertex="1">
          <mxGeometry x="40" y="70" width="240" height="80" as="geometry" />
        </mxCell>
        <mxCell id="70lNwWaXjQEXrbum7vbb-68" value="&lt;font style=&quot;font-size: 12px&quot;&gt;&lt;b&gt;Documentation&lt;/b&gt;&lt;/font&gt;" style="rounded=1;whiteSpace=wrap;html=1;shadow=0;labelBackgroundColor=none;strokeWidth=1;fontFamily=Verdana;fontSize=8;align=center;" parent="70lNwWaXjQEXrbum7vbb-67" vertex="1">
          <mxGeometry x="80" y="460" width="170" height="60" as="geometry" />
        </mxCell>
        <mxCell id="QOqbm0XGTWtQkNrjPd4z-2" value="" style="endArrow=classic;html=1;strokeWidth=3;" edge="1" parent="70lNwWaXjQEXrbum7vbb-67">
          <mxGeometry width="50" height="50" relative="1" as="geometry">
            <mxPoint x="159.50000000000023" y="450" as="sourcePoint" />
            <mxPoint x="159.50000000000023" y="459.9999999999999" as="targetPoint" />
            <Array as="points">
              <mxPoint x="159.5" y="390" />
              <mxPoint x="159.5" y="450" />
            </Array>
          </mxGeometry>
        </mxCell>
        <mxCell id="QOqbm0XGTWtQkNrjPd4z-1" value="" style="endArrow=classic;html=1;strokeWidth=3;" edge="1" parent="1">
          <mxGeometry width="50" height="50" relative="1" as="geometry">
            <mxPoint x="1077.5500000000002" y="250" as="sourcePoint" />
            <mxPoint x="1077.5500000000002" y="259.9999999999999" as="targetPoint" />
            <Array as="points">
              <mxPoint x="1077.55" y="190" />
              <mxPoint x="1077.55" y="250" />
            </Array>
          </mxGeometry>
        </mxCell>
      </root>
    </mxGraphModel>
  </diagram>
</mxfile>
